<?xml version="1.0" encoding="UTF-8" standalone="no"?>
<!DOCTYPE svg PUBLIC "-//W3C//DTD SVG 1.1//EN"
 "http://www.w3.org/Graphics/SVG/1.1/DTD/svg11.dtd">
<!-- Generated by graphviz version 2.47.0 (20210316.0004)
 -->
<!-- Title: dependencies Pages: 1 -->
<svg width="504pt" height="211pt"
 viewBox="0.00 0.00 504.00 211.00" xmlns="http://www.w3.org/2000/svg" xmlns:xlink="http://www.w3.org/1999/xlink">
<g id="graph0" class="graph" transform="scale(1 1) rotate(0) translate(4 207)">
<title>dependencies</title>
<polygon fill="white" stroke="transparent" points="-4,4 -4,-207 500,-207 500,4 -4,4"/>
<text text-anchor="start" x="227.01" y="-42.4" font-family="Times-12" font-weight="bold" font-size="14.00">Legend</text>
<polygon fill="#ffffb3" stroke="transparent" points="14,-10 14,-30 34,-30 34,-10 14,-10"/>
<text text-anchor="start" x="37.63" y="-15.4" font-family="Times-12" font-size="14.00"> &#160;Declarations</text>
<polygon fill="#8dd3c7" stroke="transparent" points="127,-10 127,-30 147,-30 147,-10 127,-10"/>
<text text-anchor="start" x="150.73" y="-15.4" font-family="Times-12" font-size="14.00"> &#160;Module</text>
<polygon fill="#80b1d3" stroke="transparent" points="213,-10 213,-30 233,-30 233,-10 213,-10"/>
<text text-anchor="start" x="236.78" y="-15.4" font-family="Times-12" font-size="14.00"> &#160;Bootstrap</text>
<polygon fill="#fdb462" stroke="transparent" points="310,-10 310,-30 330,-30 330,-10 310,-10"/>
<text text-anchor="start" x="333.67" y="-15.4" font-family="Times-12" font-size="14.00"> &#160;Providers</text>
<polygon fill="#fb8072" stroke="transparent" points="406,-10 406,-30 426,-30 426,-10 406,-10"/>
<text text-anchor="start" x="429.73" y="-15.4" font-family="Times-12" font-size="14.00"> &#160;Exports</text>
<g id="clust1" class="cluster">
<title>cluster_EmployeesModule</title>
<polygon fill="none" stroke="black" stroke-dasharray="1,5" points="82,-70 82,-195 414,-195 414,-70 82,-70"/>
</g>
<g id="clust6" class="cluster">
<title>cluster_EmployeesModule_providers</title>
<polygon fill="none" stroke="black" points="224,-78 224,-130 406,-130 406,-78 224,-78"/>
</g>
<g id="clust3" class="cluster">
<title>cluster_EmployeesModule_imports</title>
<polygon fill="none" stroke="black" points="90,-78 90,-130 216,-130 216,-78 90,-78"/>
</g>
<!-- DatabaseModule -->
<g id="node1" class="node">
<title>DatabaseModule</title>
<polygon fill="#8dd3c7" stroke="black" points="208.35,-122 205.35,-126 184.35,-126 181.35,-122 97.65,-122 97.65,-86 208.35,-86 208.35,-122"/>
<text text-anchor="middle" x="153" y="-99.8" font-family="Times,serif" font-size="14.00">DatabaseModule</text>
</g>
<!-- EmployeesModule -->
<g id="node2" class="node">
<title>EmployeesModule</title>
<polygon fill="#8dd3c7" stroke="black" points="294.76,-187 291.76,-191 270.76,-191 267.76,-187 173.24,-187 173.24,-151 294.76,-151 294.76,-187"/>
<text text-anchor="middle" x="234" y="-164.8" font-family="Times,serif" font-size="14.00">EmployeesModule</text>
</g>
<!-- DatabaseModule&#45;&gt;EmployeesModule -->
<g id="edge1" class="edge">
<title>DatabaseModule&#45;&gt;EmployeesModule</title>
<path fill="none" stroke="black" d="M190.77,-122.11C190.77,-122.11 190.77,-140.99 190.77,-140.99"/>
<polygon fill="black" stroke="black" points="187.27,-140.99 190.77,-150.99 194.27,-140.99 187.27,-140.99"/>
</g>
<!-- EmployeesService -->
<g id="node3" class="node">
<title>EmployeesService</title>
<ellipse fill="#fdb462" stroke="black" cx="315" cy="-104" rx="82.8" ry="18"/>
<text text-anchor="middle" x="315" y="-99.8" font-family="Times,serif" font-size="14.00">EmployeesService</text>
</g>
<!-- EmployeesService&#45;&gt;EmployeesModule -->
<g id="edge2" class="edge">
<title>EmployeesService&#45;&gt;EmployeesModule</title>
<path fill="none" stroke="black" d="M263.49,-118.1C263.49,-118.1 263.49,-140.72 263.49,-140.72"/>
<polygon fill="black" stroke="black" points="259.99,-140.72 263.49,-150.72 266.99,-140.72 259.99,-140.72"/>
</g>
</g>
</svg>
