<?xml version="1.0" encoding="UTF-8" standalone="no"?>
<!DOCTYPE svg PUBLIC "-//W3C//DTD SVG 1.1//EN"
 "http://www.w3.org/Graphics/SVG/1.1/DTD/svg11.dtd">
<!-- Generated by graphviz version 2.47.0 (20210316.0004)
 -->
<!-- Title: dependencies Pages: 1 -->
<svg width="1053pt" height="363pt"
 viewBox="0.00 0.00 1053.00 363.00" xmlns="http://www.w3.org/2000/svg" xmlns:xlink="http://www.w3.org/1999/xlink">
<g id="graph0" class="graph" transform="scale(1 1) rotate(0) translate(4 359)">
<title>dependencies</title>
<polygon fill="white" stroke="transparent" points="-4,4 -4,-359 1049,-359 1049,4 -4,4"/>
<text text-anchor="start" x="501.51" y="-42.4" font-family="Times-12" font-weight="bold" font-size="14.00">Legend</text>
<polygon fill="#ffffb3" stroke="transparent" points="288.5,-10 288.5,-30 308.5,-30 308.5,-10 288.5,-10"/>
<text text-anchor="start" x="312.13" y="-15.4" font-family="Times-12" font-size="14.00"> &#160;Declarations</text>
<polygon fill="#8dd3c7" stroke="transparent" points="401.5,-10 401.5,-30 421.5,-30 421.5,-10 401.5,-10"/>
<text text-anchor="start" x="425.23" y="-15.4" font-family="Times-12" font-size="14.00"> &#160;Module</text>
<polygon fill="#80b1d3" stroke="transparent" points="487.5,-10 487.5,-30 507.5,-30 507.5,-10 487.5,-10"/>
<text text-anchor="start" x="511.28" y="-15.4" font-family="Times-12" font-size="14.00"> &#160;Bootstrap</text>
<polygon fill="#fdb462" stroke="transparent" points="584.5,-10 584.5,-30 604.5,-30 604.5,-10 584.5,-10"/>
<text text-anchor="start" x="608.17" y="-15.4" font-family="Times-12" font-size="14.00"> &#160;Providers</text>
<polygon fill="#fb8072" stroke="transparent" points="680.5,-10 680.5,-30 700.5,-30 700.5,-10 680.5,-10"/>
<text text-anchor="start" x="704.23" y="-15.4" font-family="Times-12" font-size="14.00"> &#160;Exports</text>
<g id="clust1" class="cluster">
<title>cluster_AppModule</title>
<polygon fill="none" stroke="black" stroke-dasharray="1,5" points="214,-146 214,-347 711,-347 711,-146 214,-146"/>
</g>
<g id="clust3" class="cluster">
<title>cluster_AppModule_imports</title>
<polygon fill="none" stroke="black" points="360,-154 360,-282 703,-282 703,-154 360,-154"/>
</g>
<g id="clust6" class="cluster">
<title>cluster_AppModule_providers</title>
<polygon fill="none" stroke="black" points="222,-230 222,-282 352,-282 352,-230 222,-230"/>
</g>
<g id="clust7" class="cluster">
<title>cluster_DatabaseModule</title>
<polygon fill="none" stroke="black" stroke-dasharray="1,5" points="719,-222 719,-290 1037,-290 1037,-222 719,-222"/>
</g>
<g id="clust10" class="cluster">
<title>cluster_DatabaseModule_exports</title>
<polygon fill="none" stroke="black" points="901,-230 901,-282 1029,-282 1029,-230 901,-230"/>
</g>
<g id="clust12" class="cluster">
<title>cluster_DatabaseModule_providers</title>
<polygon fill="none" stroke="black" points="727,-230 727,-282 893,-282 893,-230 727,-230"/>
</g>
<g id="clust13" class="cluster">
<title>cluster_EmployeesModule</title>
<polygon fill="none" stroke="black" stroke-dasharray="1,5" points="8,-146 8,-214 206,-214 206,-146 8,-146"/>
</g>
<g id="clust18" class="cluster">
<title>cluster_EmployeesModule_providers</title>
<polygon fill="none" stroke="black" points="16,-154 16,-206 198,-206 198,-154 16,-154"/>
</g>
<g id="clust19" class="cluster">
<title>cluster_PostsModule</title>
<polygon fill="none" stroke="black" stroke-dasharray="1,5" points="310,-70 310,-138 462,-138 462,-70 310,-70"/>
</g>
<g id="clust24" class="cluster">
<title>cluster_PostsModule_providers</title>
<polygon fill="none" stroke="black" points="318,-78 318,-130 454,-130 454,-78 318,-78"/>
</g>
<g id="clust25" class="cluster">
<title>cluster_UsersModule</title>
<polygon fill="none" stroke="black" stroke-dasharray="1,5" points="470,-70 470,-138 626,-138 626,-70 470,-70"/>
</g>
<g id="clust30" class="cluster">
<title>cluster_UsersModule_providers</title>
<polygon fill="none" stroke="black" points="478,-78 478,-130 618,-130 618,-78 478,-78"/>
</g>
<!-- DatabaseModule -->
<g id="node1" class="node">
<title>DatabaseModule</title>
<polygon fill="#8dd3c7" stroke="black" points="695.35,-198 692.35,-202 671.35,-202 668.35,-198 584.65,-198 584.65,-162 695.35,-162 695.35,-198"/>
<text text-anchor="middle" x="640" y="-175.8" font-family="Times,serif" font-size="14.00">DatabaseModule</text>
</g>
<!-- EmployeesModule -->
<g id="node2" class="node">
<title>EmployeesModule</title>
<polygon fill="#8dd3c7" stroke="black" points="489.76,-274 486.76,-278 465.76,-278 462.76,-274 368.24,-274 368.24,-238 489.76,-238 489.76,-274"/>
<text text-anchor="middle" x="429" y="-251.8" font-family="Times,serif" font-size="14.00">EmployeesModule</text>
</g>
<!-- DatabaseModule&#45;&gt;EmployeesModule -->
<g id="edge8" class="edge">
<title>DatabaseModule&#45;&gt;EmployeesModule</title>
<path fill="none" stroke="black" d="M612.29,-198.03C612.29,-218.77 612.29,-250 612.29,-250 612.29,-250 499.78,-250 499.78,-250"/>
<polygon fill="black" stroke="black" points="499.78,-246.5 489.78,-250 499.78,-253.5 499.78,-246.5"/>
</g>
<!-- AppModule -->
<g id="node5" class="node">
<title>AppModule</title>
<polygon fill="#8dd3c7" stroke="black" points="550.66,-339 547.66,-343 526.66,-343 523.66,-339 467.34,-339 467.34,-303 550.66,-303 550.66,-339"/>
<text text-anchor="middle" x="509" y="-316.8" font-family="Times,serif" font-size="14.00">AppModule</text>
</g>
<!-- DatabaseModule&#45;&gt;AppModule -->
<g id="edge1" class="edge">
<title>DatabaseModule&#45;&gt;AppModule</title>
<path fill="none" stroke="black" d="M640,-198.14C640,-236.23 640,-321 640,-321 640,-321 560.81,-321 560.81,-321"/>
<polygon fill="black" stroke="black" points="560.81,-317.5 550.81,-321 560.81,-324.5 560.81,-317.5"/>
</g>
<!-- DatabaseService  -->
<g id="node7" class="node">
<title>DatabaseService </title>
<polygon fill="#fb8072" stroke="black" points="1021.28,-274 908.72,-274 908.72,-238 1021.28,-238 1021.28,-274"/>
<text text-anchor="middle" x="965" y="-251.8" font-family="Times,serif" font-size="14.00">DatabaseService </text>
</g>
<!-- DatabaseModule&#45;&gt;DatabaseService  -->
<g id="edge6" class="edge">
<title>DatabaseModule&#45;&gt;DatabaseService </title>
<path fill="none" stroke="black" stroke-dasharray="5,2" d="M695.5,-180C788.32,-180 965,-180 965,-180 965,-180 965,-227.99 965,-227.99"/>
<polygon fill="black" stroke="black" points="961.5,-227.99 965,-237.99 968.5,-227.99 961.5,-227.99"/>
</g>
<!-- EmployeesModule&#45;&gt;AppModule -->
<g id="edge2" class="edge">
<title>EmployeesModule&#45;&gt;AppModule</title>
<path fill="none" stroke="black" d="M478.53,-274.11C478.53,-274.11 478.53,-292.99 478.53,-292.99"/>
<polygon fill="black" stroke="black" points="475.03,-292.99 478.53,-302.99 482.03,-292.99 475.03,-292.99"/>
</g>
<!-- PostsModule -->
<g id="node3" class="node">
<title>PostsModule</title>
<polygon fill="#8dd3c7" stroke="black" points="457.61,-198 454.61,-202 433.61,-202 430.61,-198 368.39,-198 368.39,-162 457.61,-162 457.61,-198"/>
<text text-anchor="middle" x="413" y="-175.8" font-family="Times,serif" font-size="14.00">PostsModule</text>
</g>
<!-- PostsModule&#45;&gt;AppModule -->
<g id="edge3" class="edge">
<title>PostsModule&#45;&gt;AppModule</title>
<path fill="none" stroke="black" d="M413,-198.11C413,-207.9 413,-218 413,-218 413,-218 510.2,-218 510.2,-218 510.2,-218 510.2,-292.59 510.2,-292.59"/>
<polygon fill="black" stroke="black" points="506.7,-292.59 510.2,-302.59 513.7,-292.59 506.7,-292.59"/>
</g>
<!-- UsersModule -->
<g id="node4" class="node">
<title>UsersModule</title>
<polygon fill="#8dd3c7" stroke="black" points="566.92,-198 563.92,-202 542.92,-202 539.92,-198 475.08,-198 475.08,-162 566.92,-162 566.92,-198"/>
<text text-anchor="middle" x="521" y="-175.8" font-family="Times,serif" font-size="14.00">UsersModule</text>
</g>
<!-- UsersModule&#45;&gt;AppModule -->
<g id="edge4" class="edge">
<title>UsersModule&#45;&gt;AppModule</title>
<path fill="none" stroke="black" d="M530.51,-198.14C530.51,-198.14 530.51,-292.93 530.51,-292.93"/>
<polygon fill="black" stroke="black" points="527.01,-292.92 530.51,-302.93 534.01,-292.93 527.01,-292.92"/>
</g>
<!-- AppService -->
<g id="node6" class="node">
<title>AppService</title>
<ellipse fill="#fdb462" stroke="black" cx="287" cy="-256" rx="56.74" ry="18"/>
<text text-anchor="middle" x="287" y="-251.8" font-family="Times,serif" font-size="14.00">AppService</text>
</g>
<!-- AppService&#45;&gt;AppModule -->
<g id="edge5" class="edge">
<title>AppService&#45;&gt;AppModule</title>
<path fill="none" stroke="black" d="M287,-274.11C287,-293.34 287,-321 287,-321 287,-321 457.24,-321 457.24,-321"/>
<polygon fill="black" stroke="black" points="457.24,-324.5 467.24,-321 457.24,-317.5 457.24,-324.5"/>
</g>
<!-- DatabaseService -->
<g id="node8" class="node">
<title>DatabaseService</title>
<ellipse fill="#fdb462" stroke="black" cx="810" cy="-256" rx="75.26" ry="18"/>
<text text-anchor="middle" x="810" y="-251.8" font-family="Times,serif" font-size="14.00">DatabaseService</text>
</g>
<!-- DatabaseService&#45;&gt;DatabaseModule -->
<g id="edge7" class="edge">
<title>DatabaseService&#45;&gt;DatabaseModule</title>
<path fill="none" stroke="black" d="M738.86,-262C703.28,-262 667.71,-262 667.71,-262 667.71,-262 667.71,-208.2 667.71,-208.2"/>
<polygon fill="black" stroke="black" points="671.21,-208.2 667.71,-198.2 664.21,-208.2 671.21,-208.2"/>
</g>
<!-- EmployeesService -->
<g id="node9" class="node">
<title>EmployeesService</title>
<ellipse fill="#fdb462" stroke="black" cx="107" cy="-180" rx="82.8" ry="18"/>
<text text-anchor="middle" x="107" y="-175.8" font-family="Times,serif" font-size="14.00">EmployeesService</text>
</g>
<!-- EmployeesService&#45;&gt;EmployeesModule -->
<g id="edge9" class="edge">
<title>EmployeesService&#45;&gt;EmployeesModule</title>
<path fill="none" stroke="black" d="M190.22,-180C262.56,-180 355.87,-180 355.87,-180 355.87,-180 355.87,-256 355.87,-256 355.87,-256 357.95,-256 357.95,-256"/>
<polygon fill="black" stroke="black" points="357.95,-259.5 367.95,-256 357.95,-252.5 357.95,-259.5"/>
</g>
<!-- PostsService -->
<g id="node10" class="node">
<title>PostsService</title>
<ellipse fill="#fdb462" stroke="black" cx="386" cy="-104" rx="60.27" ry="18"/>
<text text-anchor="middle" x="386" y="-99.8" font-family="Times,serif" font-size="14.00">PostsService</text>
</g>
<!-- PostsService&#45;&gt;PostsModule -->
<g id="edge10" class="edge">
<title>PostsService&#45;&gt;PostsModule</title>
<path fill="none" stroke="black" d="M407.41,-120.87C407.41,-120.87 407.41,-151.85 407.41,-151.85"/>
<polygon fill="black" stroke="black" points="403.91,-151.85 407.41,-161.85 410.91,-151.85 403.91,-151.85"/>
</g>
<!-- UsersService -->
<g id="node11" class="node">
<title>UsersService</title>
<ellipse fill="#fdb462" stroke="black" cx="548" cy="-104" rx="61.95" ry="18"/>
<text text-anchor="middle" x="548" y="-99.8" font-family="Times,serif" font-size="14.00">UsersService</text>
</g>
<!-- UsersService&#45;&gt;UsersModule -->
<g id="edge11" class="edge">
<title>UsersService&#45;&gt;UsersModule</title>
<path fill="none" stroke="black" d="M526.37,-121.25C526.37,-121.25 526.37,-151.76 526.37,-151.76"/>
<polygon fill="black" stroke="black" points="522.87,-151.76 526.37,-161.76 529.87,-151.76 522.87,-151.76"/>
</g>
</g>
</svg>
